HIERARCHY
ROOT SimulationBone
{
	OFFSET 0.000000 0.000000 0.000000
	CHANNELS 6 Xposition Yposition Zposition Zrotation Yrotation Xrotation 
	JOINT Hips
	{
		OFFSET 0.000000 0.000000 0.000000
		CHANNELS 6 Xposition Yposition Zposition Zrotation Yrotation Xrotation 
		JOINT RightUpLeg
		{
			OFFSET 0.103459 1.857823 10.548503
			CHANNELS 3 Zrotation Yrotation Xrotation
			JOINT RightLeg
			{
				OFFSET 43.499996 -0.000023 0.000000
				CHANNELS 3 Zrotation Yrotation Xrotation
				JOINT RightFoot
				{
					OFFSET 42.372200 0.000004 0.000000
					CHANNELS 3 Zrotation Yrotation Xrotation
					JOINT RightToe
					{
						OFFSET 17.300018 0.000006 0.000005
						CHANNELS 3 Zrotation Yrotation Xrotation
						End Site
						{
							OFFSET 0.000000 0.000000 0.000000
						}
					}
				}
			}
		}
		JOINT LeftUpLeg
		{
			OFFSET 0.103455 1.857822 -10.548502
			CHANNELS 3 Zrotation Yrotation Xrotation
			JOINT LeftLeg
			{
				OFFSET 43.500046 0.000008 0.000013
				CHANNELS 3 Zrotation Yrotation Xrotation
				JOINT LeftFoot
				{
					OFFSET 42.372261 -0.000023 0.000013
					CHANNELS 3 Zrotation Yrotation Xrotation
					JOINT LeftToe
					{
						OFFSET 17.299988 -0.000007 0.000011
						CHANNELS 3 Zrotation Yrotation Xrotation
						End Site
						{
							OFFSET 0.000000 0.000000 0.000000
						}
					}
				}
			}
		}
		JOINT Spine
		{
			OFFSET 6.901964 -2.603734 -0.000001
			CHANNELS 3 Zrotation Yrotation Xrotation
			JOINT Spine1
			{
				OFFSET 12.588106 0.000013 -0.000000
				CHANNELS 3 Zrotation Yrotation Xrotation
				JOINT Spine2
				{
					OFFSET 12.343193 -0.000017 0.000001
					CHANNELS 3 Zrotation Yrotation Xrotation
					JOINT Neck
					{
						OFFSET 25.832893 -0.000002 -0.000002
						CHANNELS 3 Zrotation Yrotation Xrotation
						JOINT Head
						{
							OFFSET 11.766612 0.000007 0.000002
							CHANNELS 3 Zrotation Yrotation Xrotation
							End Site
							{
								OFFSET 0.000000 0.000000 0.000000
							}
						}
					}
					JOINT RightShoulder
					{
						OFFSET 19.745903 -1.480356 6.000103
						CHANNELS 3 Zrotation Yrotation Xrotation
						JOINT RightArm
						{
							OFFSET 11.284128 0.000005 -0.000009
							CHANNELS 3 Zrotation Yrotation Xrotation
							JOINT RightForeArm
							{
								OFFSET 33.000053 -0.000022 0.000028
								CHANNELS 3 Zrotation Yrotation Xrotation
								JOINT RightHand
								{
									OFFSET 25.200006 0.000028 0.000005
									CHANNELS 3 Zrotation Yrotation Xrotation
									End Site
									{
										OFFSET 0.000000 0.000000 0.000000
									}
								}
							}
						}
					}
					JOINT LeftShoulder
					{
						OFFSET 19.746094 -1.480350 -6.000075
						CHANNELS 3 Zrotation Yrotation Xrotation
						JOINT LeftArm
						{
							OFFSET 11.284135 -0.000011 -0.000017
							CHANNELS 3 Zrotation Yrotation Xrotation
							JOINT LeftForeArm
							{
								OFFSET 33.000092 0.000037 0.000003
								CHANNELS 3 Zrotation Yrotation Xrotation
								JOINT LeftHand
								{
									OFFSET 25.199785 0.000114 0.000427
									CHANNELS 3 Zrotation Yrotation Xrotation
									End Site
									{
										OFFSET 0.000000 0.000000 0.000000
									}
								}
							}
						}
					}
				}
			}
		}
	}
}
MOTION
Frames: 9
Frame Time: 0.033333
-316.060577 0.000000 572.097229 180.000000 47.847461 180.000000 -0.387921 88.729958 2.386346 92.326545 5.776285 -176.761425 -167.505171 -11.867802 162.357421 -35.716155 2.861308 -11.547209 71.636547 0.489200 -24.228925 21.454565 0.003108 0.000017 161.879909 -5.525302 -171.320324 -24.964044 3.693167 6.949166 80.194446 -6.015479 -4.564514 21.454553 -0.003095 -0.000001 8.259374 1.527975 -1.810067 6.459663 3.154257 -3.533580 6.141711 3.132731 -3.552550 18.587376 -4.251180 -18.691009 -21.602836 21.566090 -28.630106 158.141924 -73.767491 20.988529 -17.483129 52.332278 31.465346 -41.711180 -21.798101 1.977128 3.783416 -11.596217 4.974906 -148.588716 75.807074 33.574099 -9.238093 -59.531635 -41.032112 -32.342807 17.364984 -1.428955 3.579522 7.122806 -3.421906 
-317.333248 0.000000 569.887261 180.000000 49.656107 180.000000 0.037742 88.790771 2.750143 92.820481 6.253830 -176.925659 -170.155230 -13.386091 164.033687 -43.837172 3.772713 -11.754038 67.075210 0.008187 -23.148129 21.454558 0.003109 0.000018 163.938638 -7.217603 -172.727274 -25.091924 3.927127 6.747126 81.837674 -5.912035 -5.124257 21.454553 -0.003104 -0.000003 8.298240 1.647026 -1.744123 6.536245 3.389587 -3.394162 6.218154 3.368902 -3.414561 18.953597 -4.210764 -18.713796 -21.736051 21.425385 -28.627302 158.022888 -73.992812 21.098529 -15.146612 52.791396 33.955343 -42.492902 -21.899260 2.006306 2.711591 -10.531855 7.854416 -148.646718 75.838459 33.513853 -10.927237 -59.368762 -39.842054 -33.482414 17.676784 -1.473705 3.097381 8.587649 -4.030568 
-318.657683 0.000000 567.601521 180.000000 51.421114 180.000000 0.244765 88.829247 2.903743 93.297623 6.582135 -177.205676 -173.735629 -14.418700 166.602575 -52.539673 4.261803 -12.169011 63.020564 0.255103 -21.138768 21.454555 0.003109 0.000019 165.952655 -8.476895 -173.313701 -25.328351 3.848106 5.970260 83.269971 -5.399215 -5.639655 21.454550 -0.003084 0.000000 8.390454 1.750481 -1.644110 6.721325 3.593200 -3.185566 6.403101 3.573769 -3.207202 19.095035 -4.288638 -18.779405 -21.848406 21.316023 -28.676696 158.133892 -73.808540 20.994651 -13.448995 52.841233 35.609540 -42.607328 -21.782199 2.001891 2.171787 -9.258505 10.497671 -148.798786 76.088301 33.350499 -13.151541 -59.086450 -38.212361 -34.616092 17.939613 -1.516157 2.798506 11.243799 -4.179211 
-320.025046 0.000000 565.257437 180.000000 53.148629 180.000000 0.247239 88.740509 2.888457 93.875293 7.001887 -177.661352 -177.351531 -15.557805 168.825447 -60.889996 4.568617 -7.859345 64.911174 -0.842552 -16.554540 21.454553 0.003106 0.000017 167.805781 -9.543000 -173.243404 -26.074491 3.513229 4.725088 84.675453 -4.515919 -5.960656 21.454551 -0.003091 0.000001 8.537700 1.851527 -1.483210 7.019149 3.789357 -2.853129 6.700743 3.771922 -2.875971 19.297940 -4.328858 -18.834884 -21.913970 21.326738 -28.753153 158.228681 -73.681335 20.904303 -12.518018 52.937859 36.461329 -41.902975 -21.475368 1.961326 2.098963 -7.635031 11.689359 -149.590008 76.460409 32.531269 -15.450853 -58.650138 -36.702220 -35.721377 18.293714 -1.564805 2.833475 15.278242 -3.942474 
-321.437795 0.000000 562.857643 180.000000 54.840367 180.000000 0.145309 88.688103 2.787569 94.479358 7.226808 -178.353766 179.253247 -16.085493 171.436765 -67.480281 4.391380 -1.305003 72.236730 -3.981768 -14.806255 21.454557 0.003113 0.000016 169.840071 -10.258107 -173.529644 -26.636249 3.217221 3.481922 85.899171 -3.631279 -6.202594 21.454553 -0.003092 -0.000001 8.686559 1.878787 -1.270728 7.323810 3.834020 -2.421530 7.005235 3.819200 -2.444644 19.747170 -4.326742 -18.796764 -21.909585 21.554083 -28.802515 158.276793 -73.797653 20.849212 -12.095105 53.254971 37.080783 -40.351692 -21.021282 1.887994 2.272168 -6.659772 12.135113 -150.990375 76.887077 31.089734 -17.362189 -58.213108 -35.580658 -36.833851 18.797932 -1.624307 2.957529 20.208891 -3.333376 
-322.885520 0.000000 560.411839 180.000000 56.505647 180.000000 0.085317 88.733704 2.626072 95.042710 7.274643 -179.094974 175.382456 -15.376504 174.145399 -71.861192 4.084003 1.592120 74.350598 -5.680568 -14.463361 21.454563 0.003106 0.000017 172.227550 -10.683105 -174.971183 -26.606421 3.266773 2.773409 86.891249 -3.125746 -6.413363 21.454553 -0.003086 0.000003 8.817871 1.863182 -1.078051 7.593361 3.792931 -2.032761 7.274728 3.780450 -2.055657 20.296843 -4.518895 -18.626684 -21.902952 21.780182 -28.707500 158.903067 -73.779785 20.210098 -11.560092 53.546357 37.915347 -38.458627 -20.693651 1.815789 2.784504 -6.197244 11.287608 -151.990929 77.580519 30.050302 -18.990614 -58.012389 -34.401607 -38.022693 19.239591 -1.682701 2.983750 24.729521 -3.043709 
-324.365871 0.000000 557.919057 180.000000 58.150453 180.000000 0.067927 88.781197 2.435028 95.490979 7.145956 -179.654562 171.319832 -14.281496 176.592779 -74.393061 3.348848 1.437059 75.248590 -5.389251 -14.347547 21.454548 0.003102 0.000016 174.657650 -10.773606 -177.215269 -26.390719 3.623851 2.572900 87.884017 -2.948910 -6.511467 21.454553 -0.003098 -0.000002 8.912660 1.802764 -0.944477 7.788156 3.664885 -1.766506 7.469523 3.654007 -1.788619 20.681437 -4.451078 -18.410078 -21.789458 21.592752 -28.375097 159.549613 -73.753032 19.550739 -10.779381 53.763120 38.789129 -36.520188 -20.285766 1.739934 3.208458 -5.874406 10.222012 -153.153359 78.097326 28.852666 -20.292816 -57.669835 -33.258582 -39.438988 19.564862 -1.740627 2.701815 28.011864 -3.073074 
-325.874085 0.000000 555.377850 180.000000 59.773105 180.000000 0.068245 88.839119 2.298775 95.911399 6.956776 179.875274 167.438003 -13.344497 178.471778 -74.694539 2.500918 0.002748 76.856089 -3.771116 -13.164515 21.454560 0.003107 0.000018 177.335357 -10.735698 -179.038683 -25.749680 3.676007 2.201326 88.707280 -2.651825 -6.540897 21.454551 -0.003083 0.000000 9.005225 1.730272 -0.823501 7.977901 3.513113 -1.526569 7.659259 3.503702 -1.547779 20.844243 -4.519353 -18.282572 -21.813570 21.442580 -28.182776 159.828202 -73.746550 19.266179 -9.957853 53.967077 39.534730 -34.730658 -19.705408 1.659307 3.407859 -6.035402 9.208330 -153.013887 78.438487 28.986148 -21.854831 -57.271727 -31.982518 -40.913561 19.776386 -1.794190 2.294429 29.756399 -2.873800 
-327.402265 0.000000 552.787998 180.000000 61.367268 180.000000 0.034092 88.811302 2.233101 96.252109 6.935060 179.583904 163.647917 -12.650502 179.580194 -73.159871 2.550007 -1.233814 79.787189 -2.414024 -12.736497 21.454558 0.003107 0.000018 -179.932728 -10.673712 179.445995 -24.849507 3.781892 1.757914 89.451149 -2.326153 -6.637641 21.454555 -0.003085 0.000001 9.088274 1.699742 -0.709883 8.147830 3.445175 -1.298989 7.829197 3.437126 -1.319799 20.859275 -4.613607 -18.218597 -21.716139 21.310375 -28.035562 159.399007 -73.684627 19.708122 -9.025340 54.081182 40.147729 -33.329920 -19.078636 1.586913 3.935184 -6.085127 8.485614 -153.141215 78.708491 28.849811 -23.268182 -56.788505 -30.924108 -42.182886 20.004804 -1.844565 1.230921 31.270631 -3.251674 
